# xmcd CD database file
#
# Track frame offsets:
#	150
#	12290
#	23680
#	35997
#	54720
#	64153
#	77640
#	94369
#	107478
#	117014
#	130009
#	144357
#	157283
#	171351
#	184536
#
# Disc length: 2688 seconds
#
# Revision: 4
# Processed by: cddbd v1.5.2PL0 Copyright (c) Steve Scherf et al.
# Submitted via: CDex 1.70beta2
#
DISCID=c90a7e0f
DTITLE=Captain Cook and Seine Singenden Saxophone - Liebesgrüße aus der Ferne CD 3
DYEAR=2005
DGENRE=Jazz
TTITLE0=Patrona Bavariae
TTITLE1=Schön ist die Jugendzeit
TTITLE2=Gold und Silber
TTITLE3=Königin der blauen Berge
TTITLE4=Vor meinem Vaterhaus
TTITLE5=Heimweh nach Montana
TTITLE6=Schwalbenlied
TTITLE7=Mutter Gottes von Altötting
TTITLE8=Alle Tage ist kein Sonntag
TTITLE9=Old Heidelberg
TTITLE10=Frauenkäferl
TTITLE11=Jennerwein
TTITLE12=Dann trag ich meine Sorgen in d´ Bürgersaalkirch´
TTITLE13=Heimat, deine Sterne
TTITLE14=Guten Abend, gut´Nacht
EXTD=YEAR: 2005
EXTT0=Track 01
EXTT1=
EXTT2=
EXTT3=
EXTT4=
EXTT5=
EXTT6=
EXTT7=
EXTT8=
EXTT9=
EXTT10=
EXTT11=
EXTT12=
EXTT13=
EXTT14=
PLAYORDER=
